<mxfile host="app.diagrams.net" modified="2022-01-21T08:16:13.184Z" agent="5.0 (X11; Linux x86_64) AppleWebKit/537.36 (KHTML, like Gecko) Chrome/96.0.4664.110 Safari/537.36" etag="MGSAHBtx7i3kyMN_QLJ5" version="16.4.3" type="github">
  <diagram id="qgHEqQOMFWDJMN6MNCsv" name="Page-1">
    <mxGraphModel dx="1254" dy="746" grid="1" gridSize="10" guides="1" tooltips="1" connect="1" arrows="1" fold="1" page="1" pageScale="1" pageWidth="850" pageHeight="1100" math="0" shadow="0">
      <root>
        <mxCell id="0" />
        <mxCell id="1" parent="0" />
        <mxCell id="_wl-bGsMftItGD1j7Wp_-1" value="Container&lt;br&gt;&lt;br&gt;&lt;br&gt;&lt;br&gt;&lt;br&gt;&lt;br&gt;" style="whiteSpace=wrap;html=1;aspect=fixed;" vertex="1" parent="1">
          <mxGeometry x="250" y="80" width="110" height="110" as="geometry" />
        </mxCell>
        <mxCell id="_wl-bGsMftItGD1j7Wp_-2" value="/data" style="shape=cylinder3;whiteSpace=wrap;html=1;boundedLbl=1;backgroundOutline=1;size=15;" vertex="1" parent="1">
          <mxGeometry x="270" y="117" width="70" height="70" as="geometry" />
        </mxCell>
        <mxCell id="_wl-bGsMftItGD1j7Wp_-4" value="/mnt&lt;br&gt;&lt;br&gt;Host OS" style="rounded=0;whiteSpace=wrap;html=1;" vertex="1" parent="1">
          <mxGeometry x="209" y="230" width="210" height="60" as="geometry" />
        </mxCell>
        <mxCell id="_wl-bGsMftItGD1j7Wp_-5" value="Backend Storage&lt;br&gt;(NFS, iSCSI, Gluster, Ceph ...)" style="shape=cylinder3;whiteSpace=wrap;html=1;boundedLbl=1;backgroundOutline=1;size=15;" vertex="1" parent="1">
          <mxGeometry x="470" y="200" width="120" height="120" as="geometry" />
        </mxCell>
        <mxCell id="_wl-bGsMftItGD1j7Wp_-6" value="" style="endArrow=classic;html=1;rounded=0;exitX=0.629;exitY=0.986;exitDx=0;exitDy=0;exitPerimeter=0;" edge="1" parent="1" source="_wl-bGsMftItGD1j7Wp_-2" target="_wl-bGsMftItGD1j7Wp_-4">
          <mxGeometry width="50" height="50" relative="1" as="geometry">
            <mxPoint x="400" y="350" as="sourcePoint" />
            <mxPoint x="450" y="300" as="targetPoint" />
          </mxGeometry>
        </mxCell>
        <mxCell id="_wl-bGsMftItGD1j7Wp_-7" value="" style="endArrow=classic;html=1;rounded=0;" edge="1" parent="1" source="_wl-bGsMftItGD1j7Wp_-4" target="_wl-bGsMftItGD1j7Wp_-5">
          <mxGeometry width="50" height="50" relative="1" as="geometry">
            <mxPoint x="400" y="350" as="sourcePoint" />
            <mxPoint x="450" y="300" as="targetPoint" />
          </mxGeometry>
        </mxCell>
        <mxCell id="_wl-bGsMftItGD1j7Wp_-8" value="Container&lt;br&gt;&lt;br&gt;&lt;br&gt;&lt;br&gt;&lt;br&gt;&lt;br&gt;" style="whiteSpace=wrap;html=1;aspect=fixed;" vertex="1" parent="1">
          <mxGeometry x="260" y="396" width="110" height="110" as="geometry" />
        </mxCell>
        <mxCell id="_wl-bGsMftItGD1j7Wp_-9" value="/data" style="shape=cylinder3;whiteSpace=wrap;html=1;boundedLbl=1;backgroundOutline=1;size=15;" vertex="1" parent="1">
          <mxGeometry x="280" y="433" width="70" height="70" as="geometry" />
        </mxCell>
        <mxCell id="_wl-bGsMftItGD1j7Wp_-10" value="/mnt" style="rounded=0;whiteSpace=wrap;html=1;" vertex="1" parent="1">
          <mxGeometry x="219" y="546" width="210" height="60" as="geometry" />
        </mxCell>
        <mxCell id="_wl-bGsMftItGD1j7Wp_-11" value="Backend Storage&lt;br&gt;(NFS, iSCSI, Gluster, Ceph ...)" style="shape=cylinder3;whiteSpace=wrap;html=1;boundedLbl=1;backgroundOutline=1;size=15;" vertex="1" parent="1">
          <mxGeometry x="570" y="516" width="120" height="120" as="geometry" />
        </mxCell>
        <mxCell id="_wl-bGsMftItGD1j7Wp_-12" value="&amp;nbsp;BInd mount" style="endArrow=classic;html=1;rounded=0;exitX=0.629;exitY=0.986;exitDx=0;exitDy=0;exitPerimeter=0;" edge="1" parent="1" source="_wl-bGsMftItGD1j7Wp_-9" target="_wl-bGsMftItGD1j7Wp_-10">
          <mxGeometry width="50" height="50" relative="1" as="geometry">
            <mxPoint x="410" y="666" as="sourcePoint" />
            <mxPoint x="460" y="616" as="targetPoint" />
          </mxGeometry>
        </mxCell>
        <mxCell id="_wl-bGsMftItGD1j7Wp_-14" value="Docker &lt;br&gt;Daemon" style="rounded=0;whiteSpace=wrap;html=1;" vertex="1" parent="1">
          <mxGeometry x="425" y="396" width="75" height="70" as="geometry" />
        </mxCell>
        <mxCell id="_wl-bGsMftItGD1j7Wp_-15" value="Docker &lt;br&gt;Volume Driver" style="rounded=0;whiteSpace=wrap;html=1;" vertex="1" parent="1">
          <mxGeometry x="523" y="396" width="75" height="70" as="geometry" />
        </mxCell>
        <mxCell id="_wl-bGsMftItGD1j7Wp_-16" value="" style="endArrow=classic;html=1;rounded=0;exitX=1;exitY=0.5;exitDx=0;exitDy=0;entryX=0;entryY=0.5;entryDx=0;entryDy=0;" edge="1" parent="1" source="_wl-bGsMftItGD1j7Wp_-14" target="_wl-bGsMftItGD1j7Wp_-15">
          <mxGeometry width="50" height="50" relative="1" as="geometry">
            <mxPoint x="400" y="470" as="sourcePoint" />
            <mxPoint x="450" y="420" as="targetPoint" />
          </mxGeometry>
        </mxCell>
        <mxCell id="_wl-bGsMftItGD1j7Wp_-19" value="Container&lt;br&gt;&lt;br&gt;&lt;br&gt;&lt;br&gt;&lt;br&gt;&lt;br&gt;" style="whiteSpace=wrap;html=1;aspect=fixed;" vertex="1" parent="1">
          <mxGeometry x="270" y="770" width="110" height="110" as="geometry" />
        </mxCell>
        <mxCell id="_wl-bGsMftItGD1j7Wp_-20" value="/data" style="shape=cylinder3;whiteSpace=wrap;html=1;boundedLbl=1;backgroundOutline=1;size=15;" vertex="1" parent="1">
          <mxGeometry x="290" y="807" width="70" height="70" as="geometry" />
        </mxCell>
        <mxCell id="_wl-bGsMftItGD1j7Wp_-21" value="/mnt" style="rounded=0;whiteSpace=wrap;html=1;" vertex="1" parent="1">
          <mxGeometry x="229" y="920" width="210" height="60" as="geometry" />
        </mxCell>
        <mxCell id="_wl-bGsMftItGD1j7Wp_-24" value="Backend Storage&lt;br&gt;(NFS, iSCSI, Gluster, Ceph ...)" style="shape=cylinder3;whiteSpace=wrap;html=1;boundedLbl=1;backgroundOutline=1;size=15;" vertex="1" parent="1">
          <mxGeometry x="580" y="890" width="120" height="120" as="geometry" />
        </mxCell>
        <mxCell id="_wl-bGsMftItGD1j7Wp_-25" value="&amp;nbsp;BInd mount" style="endArrow=classic;html=1;rounded=0;exitX=0.629;exitY=0.986;exitDx=0;exitDy=0;exitPerimeter=0;" edge="1" parent="1" source="_wl-bGsMftItGD1j7Wp_-20" target="_wl-bGsMftItGD1j7Wp_-21">
          <mxGeometry width="50" height="50" relative="1" as="geometry">
            <mxPoint x="420" y="1040" as="sourcePoint" />
            <mxPoint x="470" y="990" as="targetPoint" />
          </mxGeometry>
        </mxCell>
        <mxCell id="_wl-bGsMftItGD1j7Wp_-27" value="kubelet&lt;br&gt;&lt;br&gt;&lt;br&gt;&lt;br&gt;&lt;br&gt;&lt;br&gt;&lt;br&gt;&lt;br&gt;&lt;br&gt;" style="rounded=0;whiteSpace=wrap;html=1;" vertex="1" parent="1">
          <mxGeometry x="480" y="690" width="128" height="160" as="geometry" />
        </mxCell>
        <mxCell id="_wl-bGsMftItGD1j7Wp_-17" style="edgeStyle=orthogonalEdgeStyle;rounded=0;orthogonalLoop=1;jettySize=auto;html=1;exitX=1;exitY=0.5;exitDx=0;exitDy=0;entryX=1;entryY=0.5;entryDx=0;entryDy=0;curved=1;sketch=0;" edge="1" parent="1" source="_wl-bGsMftItGD1j7Wp_-15" target="_wl-bGsMftItGD1j7Wp_-10">
          <mxGeometry relative="1" as="geometry" />
        </mxCell>
        <mxCell id="_wl-bGsMftItGD1j7Wp_-18" value="Provisioning&lt;br&gt;Mkfs&lt;br&gt;mount" style="edgeLabel;html=1;align=center;verticalAlign=middle;resizable=0;points=[];" vertex="1" connectable="0" parent="_wl-bGsMftItGD1j7Wp_-17">
          <mxGeometry x="0.5537" y="-3" relative="1" as="geometry">
            <mxPoint as="offset" />
          </mxGeometry>
        </mxCell>
        <mxCell id="_wl-bGsMftItGD1j7Wp_-22" style="edgeStyle=orthogonalEdgeStyle;rounded=0;orthogonalLoop=1;jettySize=auto;html=1;exitX=1;exitY=0.5;exitDx=0;exitDy=0;entryX=1;entryY=0.5;entryDx=0;entryDy=0;curved=1;" edge="1" parent="1" source="_wl-bGsMftItGD1j7Wp_-27" target="_wl-bGsMftItGD1j7Wp_-21">
          <mxGeometry relative="1" as="geometry" />
        </mxCell>
        <mxCell id="_wl-bGsMftItGD1j7Wp_-23" value="Provisioning&lt;br&gt;Mkfs&lt;br&gt;Fsck&lt;br&gt;mount" style="edgeLabel;html=1;align=center;verticalAlign=middle;resizable=0;points=[];" vertex="1" connectable="0" parent="_wl-bGsMftItGD1j7Wp_-22">
          <mxGeometry x="0.5537" y="-3" relative="1" as="geometry">
            <mxPoint as="offset" />
          </mxGeometry>
        </mxCell>
        <mxCell id="_wl-bGsMftItGD1j7Wp_-41" value="" style="group" vertex="1" connectable="0" parent="1">
          <mxGeometry x="490" y="726" width="45" height="120" as="geometry" />
        </mxCell>
        <mxCell id="_wl-bGsMftItGD1j7Wp_-26" value="NFS" style="rounded=0;whiteSpace=wrap;html=1;" vertex="1" parent="_wl-bGsMftItGD1j7Wp_-41">
          <mxGeometry width="45" height="30" as="geometry" />
        </mxCell>
        <mxCell id="_wl-bGsMftItGD1j7Wp_-30" value="RBD" style="rounded=0;whiteSpace=wrap;html=1;" vertex="1" parent="_wl-bGsMftItGD1j7Wp_-41">
          <mxGeometry y="30" width="45" height="30" as="geometry" />
        </mxCell>
        <mxCell id="_wl-bGsMftItGD1j7Wp_-31" value="EBS" style="rounded=0;whiteSpace=wrap;html=1;" vertex="1" parent="_wl-bGsMftItGD1j7Wp_-41">
          <mxGeometry y="60" width="45" height="30" as="geometry" />
        </mxCell>
        <mxCell id="_wl-bGsMftItGD1j7Wp_-32" value="Cinder" style="rounded=0;whiteSpace=wrap;html=1;" vertex="1" parent="_wl-bGsMftItGD1j7Wp_-41">
          <mxGeometry y="90" width="45" height="30" as="geometry" />
        </mxCell>
        <mxCell id="_wl-bGsMftItGD1j7Wp_-42" value="" style="group" vertex="1" connectable="0" parent="1">
          <mxGeometry x="550" y="726" width="45" height="120" as="geometry" />
        </mxCell>
        <mxCell id="_wl-bGsMftItGD1j7Wp_-37" value="iSCSI" style="rounded=0;whiteSpace=wrap;html=1;" vertex="1" parent="_wl-bGsMftItGD1j7Wp_-42">
          <mxGeometry width="45" height="30" as="geometry" />
        </mxCell>
        <mxCell id="_wl-bGsMftItGD1j7Wp_-38" value="Gluster" style="rounded=0;whiteSpace=wrap;html=1;" vertex="1" parent="_wl-bGsMftItGD1j7Wp_-42">
          <mxGeometry y="30" width="45" height="30" as="geometry" />
        </mxCell>
        <mxCell id="_wl-bGsMftItGD1j7Wp_-39" value="GCE&lt;br&gt;PD" style="rounded=0;whiteSpace=wrap;html=1;" vertex="1" parent="_wl-bGsMftItGD1j7Wp_-42">
          <mxGeometry y="60" width="45" height="30" as="geometry" />
        </mxCell>
        <mxCell id="_wl-bGsMftItGD1j7Wp_-40" value="Azure" style="rounded=0;whiteSpace=wrap;html=1;" vertex="1" parent="_wl-bGsMftItGD1j7Wp_-42">
          <mxGeometry y="90" width="45" height="30" as="geometry" />
        </mxCell>
      </root>
    </mxGraphModel>
  </diagram>
</mxfile>
